<?xml version="1.0" encoding="iso-8859-1"?>
<!-- Uploaded to: SVG Repo, www.svgrepo.com, Generator: SVG Repo Mixer Tools -->
<svg version="1.1" id="Layer_1" xmlns="http://www.w3.org/2000/svg" xmlns:xlink="http://www.w3.org/1999/xlink" 
	 viewBox="0 0 512 512" xml:space="preserve">
<g>
	<rect x="211.86" y="114.759" style="fill:#C7CFE2;" width="17.655" height="44.14"/>
	<rect x="282.48" y="114.759" style="fill:#C7CFE2;" width="17.655" height="44.14"/>
</g>
<rect x="247.17" y="97.099" style="fill:#E4EAF6;" width="17.655" height="61.793"/>
<rect x="17.655" y="203.029" style="fill:#C7CFE2;" width="476.69" height="238.34"/>
<path style="fill:#AFB9D2;" d="M498.759,211.861H13.241c-2.438,0-4.414-1.976-4.414-4.414v-8.828c0-2.438,1.976-4.414,4.414-4.414
	h485.517c2.438,0,4.414,1.976,4.414,4.414v8.828C503.172,209.885,501.196,211.861,498.759,211.861z"/>
<rect x="105.93" y="167.719" style="fill:#E4EAF6;" width="300.14" height="273.65"/>
<rect x="88.28" y="414.899" style="fill:#C7CFE2;" width="335.45" height="26.483"/>
<g>
	<rect x="17.655" y="414.899" style="fill:#AFB9D2;" width="88.28" height="26.483"/>
	<rect x="406.07" y="414.899" style="fill:#AFB9D2;" width="88.28" height="26.483"/>
</g>
<path style="fill:#C7CFE2;" d="M410.483,176.551H101.517c-2.438,0-4.414-1.976-4.414-4.414v-17.655c0-2.438,1.976-4.414,4.414-4.414
	h308.966c2.438,0,4.414,1.976,4.414,4.414v17.655C414.897,174.574,412.92,176.551,410.483,176.551z"/>
<rect x="203.03" y="211.859" style="fill:#B4E1FA;" width="35.31" height="61.793"/>
<rect x="203.03" y="211.859" style="fill:#A0D2F0;" width="35.31" height="26.483"/>
<path style="fill:#707487;" d="M238.345,282.482h-35.31c-4.875,0-8.828-3.953-8.828-8.828v-61.793c0-4.875,3.953-8.828,8.828-8.828
	h35.31c4.875,0,8.828,3.953,8.828,8.828v61.793C247.172,278.529,243.22,282.482,238.345,282.482z M211.862,264.828h17.655v-44.138
	h-17.655V264.828z"/>
<rect x="273.65" y="211.859" style="fill:#B4E1FA;" width="35.31" height="61.793"/>
<rect x="273.65" y="211.859" style="fill:#A0D2F0;" width="35.31" height="26.483"/>
<path style="fill:#707487;" d="M308.966,282.482h-35.31c-4.875,0-8.828-3.953-8.828-8.828v-61.793c0-4.875,3.953-8.828,8.828-8.828
	h35.31c4.875,0,8.828,3.953,8.828,8.828v61.793C317.793,278.529,313.841,282.482,308.966,282.482z M282.483,264.828h17.655v-44.138
	h-17.655V264.828z"/>
<rect x="344.28" y="211.859" style="fill:#B4E1FA;" width="35.31" height="61.793"/>
<rect x="344.28" y="211.859" style="fill:#A0D2F0;" width="35.31" height="26.483"/>
<path style="fill:#707487;" d="M379.586,282.482h-35.31c-4.875,0-8.828-3.953-8.828-8.828v-61.793c0-4.875,3.953-8.828,8.828-8.828
	h35.31c4.875,0,8.828,3.953,8.828,8.828v61.793C388.414,278.529,384.461,282.482,379.586,282.482z M353.103,264.828h17.655v-44.138
	h-17.655V264.828z"/>
<rect x="432.55" y="326.62" style="fill:#B4E1FA;" width="35.31" height="61.793"/>
<rect x="432.55" y="335.45" style="fill:#A0D2F0;" width="35.31" height="26.483"/>
<path style="fill:#707487;" d="M467.862,397.24h-35.31c-4.875,0-8.828-3.953-8.828-8.828v-52.966c0-4.875,3.953-8.828,8.828-8.828
	h35.31c4.875,0,8.828,3.953,8.828,8.828v52.966C476.69,393.289,472.737,397.24,467.862,397.24z M441.379,379.586h17.655v-35.31
	h-17.655V379.586z"/>
<rect x="432.55" y="238.339" style="fill:#B4E1FA;" width="35.31" height="61.793"/>
<rect x="432.55" y="247.169" style="fill:#A0D2F0;" width="35.31" height="26.483"/>
<path style="fill:#707487;" d="M467.862,308.966h-35.31c-4.875,0-8.828-3.953-8.828-8.828v-52.966c0-4.875,3.953-8.828,8.828-8.828
	h35.31c4.875,0,8.828,3.953,8.828,8.828v52.966C476.69,305.013,472.737,308.966,467.862,308.966z M441.379,291.31h17.655v-35.31
	h-17.655V291.31z"/>
<rect x="44.14" y="326.62" style="fill:#B4E1FA;" width="35.31" height="61.793"/>
<rect x="44.14" y="335.45" style="fill:#A0D2F0;" width="35.31" height="26.483"/>
<path style="fill:#707487;" d="M79.448,397.24h-35.31c-4.875,0-8.828-3.953-8.828-8.828v-52.966c0-4.875,3.953-8.828,8.828-8.828
	h35.31c4.875,0,8.828,3.953,8.828,8.828v52.966C88.276,393.289,84.323,397.24,79.448,397.24z M52.966,379.586h17.655v-35.31H52.966
	V379.586z"/>
<rect x="44.14" y="238.339" style="fill:#B4E1FA;" width="35.31" height="61.793"/>
<rect x="44.14" y="247.169" style="fill:#A0D2F0;" width="35.31" height="26.483"/>
<path style="fill:#707487;" d="M79.448,308.966h-35.31c-4.875,0-8.828-3.953-8.828-8.828v-52.966c0-4.875,3.953-8.828,8.828-8.828
	h35.31c4.875,0,8.828,3.953,8.828,8.828v52.966C88.276,305.013,84.323,308.966,79.448,308.966z M52.966,291.31h17.655v-35.31H52.966
	V291.31z"/>
<rect x="132.41" y="211.859" style="fill:#B4E1FA;" width="35.31" height="61.793"/>
<rect x="132.41" y="211.859" style="fill:#A0D2F0;" width="35.31" height="26.483"/>
<path style="fill:#707487;" d="M167.724,282.482h-35.31c-4.875,0-8.828-3.953-8.828-8.828v-61.793c0-4.875,3.953-8.828,8.828-8.828
	h35.31c4.875,0,8.828,3.953,8.828,8.828v61.793C176.552,278.529,172.599,282.482,167.724,282.482z M141.241,264.828h17.655v-44.138
	h-17.655V264.828z"/>
<rect x="344.28" y="326.62" style="fill:#B4E1FA;" width="35.31" height="61.793"/>
<rect x="344.28" y="326.62" style="fill:#A0D2F0;" width="35.31" height="26.483"/>
<path style="fill:#707487;" d="M379.586,397.24h-35.31c-4.875,0-8.828-3.953-8.828-8.828V326.62c0-4.875,3.953-8.828,8.828-8.828
	h35.31c4.875,0,8.828,3.953,8.828,8.828v61.793C388.414,393.289,384.461,397.24,379.586,397.24z M353.103,379.586h17.655v-44.138
	h-17.655V379.586z"/>
<rect x="132.41" y="326.62" style="fill:#B4E1FA;" width="35.31" height="61.793"/>
<rect x="132.41" y="326.62" style="fill:#A0D2F0;" width="35.31" height="26.483"/>
<path style="fill:#707487;" d="M167.724,397.24h-35.31c-4.875,0-8.828-3.953-8.828-8.828V326.62c0-4.875,3.953-8.828,8.828-8.828
	h35.31c4.875,0,8.828,3.953,8.828,8.828v61.793C176.552,393.289,172.599,397.24,167.724,397.24z M141.241,379.586h17.655v-44.138
	h-17.655V379.586z"/>
<path style="fill:#8F96AC;" d="M507.586,432.552H317.793V326.62c0-4.875-3.953-8.828-8.828-8.828H203.034
	c-4.875,0-8.828,3.953-8.828,8.828v105.931H4.414c-2.438,0-4.414,1.976-4.414,4.414v8.828c0,2.438,1.976,4.414,4.414,4.414h503.172
	c2.438,0,4.414-1.976,4.414-4.414v-8.828C512,434.528,510.024,432.552,507.586,432.552z"/>
<rect x="247.17" y="317.789" style="fill:#707487;" width="17.655" height="114.76"/>
<path style="fill:#FF6464;" d="M282.483,66.206v22.069h-52.966V66.206c0-2.438-1.976-4.414-4.414-4.414h-8.828
	c-2.438,0-4.414,1.976-4.414,4.414v61.793c0,2.438,1.976,4.414,4.414,4.414h8.828c2.438,0,4.414-1.976,4.414-4.414V105.93h52.966
	v22.069c0,2.438,1.976,4.414,4.414,4.414h8.828c2.438,0,4.414-1.976,4.414-4.414V66.206c0-2.438-1.976-4.414-4.414-4.414h-8.828
	C284.459,61.792,282.483,63.768,282.483,66.206z"/>
</svg>